<svg width="192" height="24" viewBox="0 0 192 24" fill="none" xmlns="http://www.w3.org/2000/svg">
<path fill-rule="evenodd" clip-rule="evenodd" d="M91.2772 14.1054C91.2772 16.615 89.2662 18.6685 86.8074 18.6685H77.1863C74.7275 18.6685 72.7165 16.615 72.7165 14.1054L72.7156 9.89442C72.7156 7.21468 74.448 5.33106 77.1863 5.33106H86.8074C89.5461 5.33106 91.2781 7.21468 91.2781 9.89442L91.2772 14.1054ZM88.0597 0H75.9403C71.0232 0 67 4.10722 67 9.12716V14.8728C67 19.8926 71.0232 24 75.9403 24H88.0597C92.977 24 97 19.8926 97 14.8728V9.12716C97 4.10722 92.977 0 88.0597 0Z" fill="white"/>
<path fill-rule="evenodd" clip-rule="evenodd" d="M24.2769 14.1054C24.2769 16.615 22.2657 18.6685 19.807 18.6685H10.1863C7.72759 18.6685 5.71635 16.615 5.71635 14.1054L5.71569 9.89442C5.71569 7.21468 7.44807 5.33106 10.1863 5.33106H19.807C22.5456 5.33106 24.2778 7.21468 24.2778 9.89442L24.2769 14.1054ZM21.0595 0H8.94029C4.02335 0 0 4.10722 0 9.12716V14.8728C0 19.8926 4.02335 24 8.94029 24H21.0595C25.9767 24 30 19.8926 30 14.8728V9.12716C30 4.10722 25.9767 0 21.0595 0Z" fill="white"/>
<path fill-rule="evenodd" clip-rule="evenodd" d="M108.051 24L108.051 10.0353C108.051 7.31739 109.884 5.40696 112.784 5.40696H122.209C125.109 5.40696 126.942 7.31739 126.942 10.0353L126.941 24H133V9.2571C133 4.1657 128.741 0 123.536 0H111.464C106.259 0 102 4.1657 102 9.2571V24H108.051Z" fill="white"/>
<path fill-rule="evenodd" clip-rule="evenodd" d="M140.075 19H138.924C137.866 19 137 19.8686 137 20.9308V22.0705C137 23.1307 137.866 24 138.924 24H140.075C141.134 24 142 23.1307 142 22.0705V20.9308C142 19.8686 141.134 19 140.075 19Z" fill="white"/>
<path fill-rule="evenodd" clip-rule="evenodd" d="M186.057 0L186.059 13.9645C186.059 16.6824 184.258 18.5928 181.411 18.5928H173.596C170.749 18.5928 168.948 16.6824 168.948 13.9645L168.95 0H163V14.7429C163 19.8343 167.182 24 172.294 24H182.706C187.818 24 192 19.8343 192 14.7429V0H186.057Z" fill="white"/>
<path fill-rule="evenodd" clip-rule="evenodd" d="M156.843 5.48474H159.023L160 0H155.517C150.282 0 146 4.22585 146 9.39026V24H152.085L152.084 10.1796C152.084 7.42265 153.928 5.48474 156.843 5.48474Z" fill="white"/>
<path fill-rule="evenodd" clip-rule="evenodd" d="M61.9275 18.5625H44.933L61.7071 5.87759C62.5286 5.25385 63 4.29904 63 3.25787C63 1.52578 61.6705 0.10807 59.7267 0H35.1279L35.1374 0.0559771L35.1279 0.0539208L36.0729 5.43732H53.0754L36.2936 18.1112C35.4718 18.735 35 19.69 35 20.7314C35 22.5332 36.2563 23.9995 38.4666 23.9995L62.8806 24L62.8707 23.9424L62.8727 23.9433L61.9275 18.5625Z" fill="white"/>
</svg>
